<svg xmlns="http://www.w3.org/2000/svg" xmlns:xlink="http://www.w3.org/1999/xlink" width="492" height="492" viewBox="0 0 492 492">
  <defs>
    <clipPath id="clip-social-logo">
      <rect width="492" height="492"/>
    </clipPath>
  </defs>
  <g id="social-logo" clip-path="url(#clip-social-logo)">
    <g id="Layer_2" data-name="Layer 2">
      <g id="Layer_1" data-name="Layer 1">
        <rect id="Rectangle_3" data-name="Rectangle 3" width="491.921" height="491.921" fill="#fb3640"/>
        <path id="Path_41" data-name="Path 41" d="M335.021,195.49c0,12.8-.171,22.858-.4,30.363Q330.583,335.266,210.427,335.19H93.432V275.378h115.09c16.762,0,29.106-4.038,37.106-12.019s12.248-20.725,12.8-38.287c.476-7.753.8-17.715.8-29.982s-.324-22.153-.8-29.506c-.552-17.143-5.219-29.658-13.753-37.811s-21.448-12.191-38.1-12.191H131V195.49H55.85V55.79H208.522q59.05,0,91.755,28.077c21.925,18.743,33.315,45.716,34.42,80.841C334.85,172.384,335.021,182.67,335.021,195.49Z" transform="translate(50.534 50.48)" fill="#fff"/>
      </g>
    </g>
  </g>
</svg>
